# xmcd CD database file
#
# Track frame offsets:
#	150
#	807
#	14852
#	31310
#	53097
#	66917
#	84072
#	100230
#	123125
#	140740
#	159865
#	177680
#	193680
#	208817
#	229407
#
# Disc length: 3067 seconds
#
# Revision: 1
# Processed by: cddbd v1.4PL0 Copyright (c) Steve Scherf et al.
# Submitted via: CDex 1.50
#
DISCID=c60bf90f
DTITLE=Blindog - Sampa Midnight
DYEAR=2001
DGENRE=Blues
TTITLE0=Intro
TTITLE1=Paranoia
TTITLE2=Sampa Midnight
TTITLE3=Biscateira Blues
TTITLE4=Porre de Matar
TTITLE5=Olhos Vermelhos
TTITLE6=Home Page
TTITLE7=Blindog Blues
TTITLE8=Beco da Eterna Escuridão
TTITLE9=Dead Man Blues
TTITLE10=Sem Destino
TTITLE11=Fuck You Baby
TTITLE12=Encruzilhada
TTITLE13=Learning to Cry
TTITLE14=End
EXTD=YEAR: 2001
EXTT0=
EXTT1=
EXTT2=
EXTT3=
EXTT4=
EXTT5=
EXTT6=
EXTT7=
EXTT8=
EXTT9=
EXTT10=
EXTT11=
EXTT12=
EXTT13=
EXTT14=
PLAYORDER=
